<?xml version="1.0" encoding="UTF-8" standalone="no"?>
<svg
        id="Pagina_inicia_Movil"
        data-name="Pagina inicia Movil"
        viewBox="0 0 154.68216 30.005714"
        version="1.1"
        width="154.68216"
        height="30.005714"
        xmlns="http://www.w3.org/2000/svg"
>
    <defs
            id="defs4">
        <style
                id="style2">.cls-1{fill:#fff;}.cls-2{fill:#12afaf;}
        </style>
    </defs>
    <title
            id="title6">logo
    </title>
    <path
            id="Logo-2"
            class="cls-2"
            d="m 9.8962988,0 a 2.8,2.8 0 0 0 -2.3,1.3 L 0.29629883,13.9 a 3,3 0 0 0 0,2.6 L 7.5962988,28.9 a 2.6,2.6 0 0 0 2.3,1.1 H 24.496299 a 2.6,2.6 0 0 0 2.3,-1.1 l 7.3,-12.5 a 2.4,2.4 0 0 0 0,-2.6 l -7.3,-12.5 a 2.8,2.8 0 0 0 -2.3,-1.3 z m 0.1,7.1 h 2.6000002 l 0.3,0.3 4.3,7.6 v 0.2 0 l 4.3,-7.7 0.3,-0.3 h 2.5 a 0.5,0.5 0 0 1 0.3,0.6 l -4.2,7.5 4.2,7.4 a 0.4,0.4 0 0 1 -0.3,0.5 h -2.5 l -0.3,-0.2 -4.3,-7.5 h -0.1 l -4.3,7.5 -0.3,0.2 H 9.9962988 a 0.3,0.3 0 0 1 -0.4,-0.2 0.4,0.4 0 0 1 0.1,-0.3 L 13.896299,15.3 9.6962988,7.8 a 0.4,0.4 0 0 1 0.2,-0.5 v 0 -0.2 z"/>
    <g
            aria-label="BLUE MOBILE"
            transform="scale(0.73588509,1.3589078)"
            id="text1690"
            style="font-size:20.792px;font-family:'Pieces NFI';-inkscape-font-specification:'Pieces NFI';fill:#ffffff;stroke-width:2.10492;stroke-linecap:round">
        <path
                d="m 53.822249,3.9857018 h 8.609188 q 2.152297,0 3.299512,1.0659961 1.157367,1.0659961 1.157367,2.6396094 0,1.3198046 -0.82234,2.2639726 -0.548227,0.6294451 -1.60407,0.9949301 1.60407,0.385789 2.355343,1.329957 0.761426,0.934015 0.761426,2.355343 0,1.157367 -0.538074,2.081231 -0.538074,0.923863 -1.47209,1.461937 -0.578683,0.335028 -1.746203,0.487313 -1.553309,0.203047 -2.060926,0.203047 h -7.939133 z m 4.639622,5.8375976 h 2.000011 q 1.076149,0 1.492395,-0.3654843 0.426398,-0.3756368 0.426398,-1.0761485 0,-0.64975 -0.426398,-1.0152343 -0.416246,-0.3654844 -1.461938,-0.3654844 h -2.030468 z m 0,5.8477496 h 2.345191 q 1.187824,0 1.675137,-0.416246 0.487312,-0.426398 0.487312,-1.137062 0,-0.659903 -0.487312,-1.055844 -0.477161,-0.406094 -1.685289,-0.406094 h -2.335039 z"
                style="font-family:'Arial Black';-inkscape-font-specification:'Arial Black, '"
                id="path326"/>
        <path
                d="m 69.984781,3.9857018 h 4.599012 V 15.204042 H 81.7615 v 3.664996 H 69.984781 Z"
                style="font-family:'Arial Black';-inkscape-font-specification:'Arial Black, '"
                id="path328"/>
        <path
                d="m 93.000143,3.9857018 h 4.58886 V 12.85885 q 0,1.319805 -0.416246,2.497477 -0.406094,1.167519 -1.289348,2.050773 -0.873102,0.873102 -1.837574,1.228434 -1.34011,0.497465 -3.218293,0.497465 -1.086301,0 -2.375649,-0.152286 Q 87.172698,18.828428 86.309749,18.381725 85.4468,17.92487 84.725983,17.092377 84.015319,16.259885 83.751358,15.376631 83.32496,13.955303 83.32496,12.85885 V 3.9857018 h 4.588859 v 9.0863472 q 0,1.218282 0.670055,1.908641 0.680207,0.680207 1.878183,0.680207 1.187825,0 1.857879,-0.670055 0.680207,-0.680207 0.680207,-1.918793 z"
                style="font-family:'Arial Black';-inkscape-font-specification:'Arial Black, '"
                id="path330"/>
        <path
                d="m 100.62455,3.9857018 h 12.32495 v 3.1776836 h -7.71578 v 2.3654961 h 7.1574 v 3.0355505 h -7.1574 v 2.934028 h 7.93913 v 3.370578 h -12.5483 z"
                style="font-family:'Arial Black';-inkscape-font-specification:'Arial Black, '"
                id="path332"/>
        <path
                d="m 122.53331,3.9857018 h 6.05079 l 2.33504,9.0558902 2.32489,-9.0558902 h 6.03049 V 18.869038 h -3.75636 V 7.5187174 L 132.60443,18.869038 H 129.2034 L 126.29983,7.5187174 V 18.869038 h -3.76652 z"
                style="font-family:'Arial Black';-inkscape-font-specification:'Arial Black, '"
                id="path334"/>
        <path
                d="m 141.62987,11.437522 q 0,-3.6446913 2.03047,-5.67516 2.03046,-2.0304688 5.65485,-2.0304688 3.71576,0 5.72592,2.0000117 2.01017,1.9898594 2.01017,5.5837891 0,2.609152 -0.88326,4.284289 -0.8731,1.664984 -2.53808,2.599 -1.65483,0.923863 -4.13201,0.923863 -2.51778,0 -4.17261,-0.802035 -1.64468,-0.802035 -2.67007,-2.538086 -1.02538,-1.736051 -1.02538,-4.345203 z m 4.59901,0.02031 q 0,2.25382 0.83249,3.238597 0.84265,0.984778 2.28428,0.984778 1.48224,0 2.29443,-0.964473 0.81219,-0.964473 0.81219,-3.461949 0,-2.1015353 -0.8528,-3.0660079 -0.84265,-0.974625 -2.29443,-0.974625 -1.39087,0 -2.23352,0.9847773 -0.84264,0.9847774 -0.84264,3.2589026 z"
                style="font-family:'Arial Black';-inkscape-font-specification:'Arial Black, '"
                id="path336"/>
        <path
                d="m 159.5386,3.9857018 h 8.60919 q 2.1523,0 3.29951,1.0659961 1.15737,1.0659961 1.15737,2.6396094 0,1.3198046 -0.82234,2.2639726 -0.54823,0.6294451 -1.60407,0.9949301 1.60407,0.385789 2.35534,1.329957 0.76143,0.934015 0.76143,2.355343 0,1.157367 -0.53807,2.081231 -0.53808,0.923863 -1.47209,1.461937 -0.57869,0.335028 -1.74621,0.487313 -1.55331,0.203047 -2.06092,0.203047 h -7.93914 z m 4.63962,5.8375976 h 2.00002 q 1.07615,0 1.49239,-0.3654843 0.4264,-0.3756368 0.4264,-1.0761485 0,-0.64975 -0.4264,-1.0152343 -0.41624,-0.3654844 -1.46194,-0.3654844 h -2.03047 z m 0,5.8477496 h 2.3452 q 1.18782,0 1.67513,-0.416246 0.48732,-0.426398 0.48732,-1.137062 0,-0.659903 -0.48732,-1.055844 -0.47716,-0.406094 -1.68529,-0.406094 h -2.33504 z"
                style="font-family:'Arial Black';-inkscape-font-specification:'Arial Black, '"
                id="path338"/>
        <path
                d="m 175.88388,3.9857018 h 4.60916 V 18.869038 h -4.60916 z"
                style="font-family:'Arial Black';-inkscape-font-specification:'Arial Black, '"
                id="path340"/>
        <path
                d="m 183.79255,3.9857018 h 4.59901 V 15.204042 h 7.17771 v 3.664996 h -11.77672 z"
                style="font-family:'Arial Black';-inkscape-font-specification:'Arial Black, '"
                id="path342"/>
        <path
                d="m 197.6505,3.9857018 h 12.32495 v 3.1776836 h -7.71578 v 2.3654961 h 7.1574 v 3.0355505 h -7.1574 v 2.934028 h 7.93913 v 3.370578 h -12.5483 z"
                style="font-family:'Arial Black';-inkscape-font-specification:'Arial Black, '"
                id="path344"/>
    </g>
</svg>
